<?xml version="1.0" encoding="utf-8"?>
<!-- Generator: Adobe Illustrator 22.1.0, SVG Export Plug-In . SVG Version: 6.00 Build 0)  -->
<svg version="1.1" id="Layer_1" xmlns="http://www.w3.org/2000/svg" xmlns:xlink="http://www.w3.org/1999/xlink" x="0px" y="0px"
	 viewBox="0 0 133.2 40.7" style="enable-background:new 0 0 133.2 40.7;" xml:space="preserve">
<style type="text/css">
	.st0{fill:#FFFFFF;}
</style>
<g>
	<polygon class="st0" points="30.9,6.3 23.5,4 10,14.8 10,1.3 1.6,2.9 1.6,36.4 10,36.8 10,24.9 14.9,20.9 19.9,36.4 27.3,36.1 
		20.6,15.8 	"/>
	<polygon class="st0" points="64.7,32.4 70.4,32.4 70.4,14 63.7,14.8 	"/>
	<polygon class="st0" points="63.2,8 64.5,11.8 69.7,11.5 70.9,7.8 67,5.2 	"/>
	<polygon class="st0" points="123.4,33.2 121.5,37.1 125.7,39.5 129.8,37.4 128,33.2 	"/>
	<polygon class="st0" points="131.6,3.3 118.2,1.3 126.3,31.1 	"/>
	<path class="st0" d="M83.3,26.7l10.5-14.3V8.7L75.7,7.4l1,6l12-0.7L76.5,24.8l0,0v0l0.2,5c0.4,2.2,3.8,2.5,3.8,2.5
		c4,0.8,11.3,0.9,14.4-1.5l0-5.5C89.7,26.6,84.5,27,83.3,26.7z"/>
	<path class="st0" d="M105.2,27.9l10.4-13.3l-0.6-2.8L97,10.5l1,6l12.2-1.4L98.9,25.6c-0.1,0.1-0.1,0.1-0.1,0.2c0,0,0,0,0,0L98.7,32
		c0.4,2.2,3.8,3,3.8,3c5.4,0.5,11.5,0.8,15.5-3l0-5.5C112.6,27.9,106.7,28.2,105.2,27.9z"/>
	<polygon class="st0" points="50.5,22.9 47.1,10.2 41.2,10.6 37.5,24.7 34.2,11.6 26.7,12.1 34.2,34.2 39.8,34.2 44.7,18 48.5,32.7 
		54.1,32.6 59.9,8.6 53.6,7.7 	"/>
</g>
</svg>
