<?xml version="1.0" encoding="utf-8"?>
<!-- Generator: Adobe Illustrator 22.1.0, SVG Export Plug-In . SVG Version: 6.00 Build 0)  -->
<svg version="1.1" id="Layer_1" xmlns="http://www.w3.org/2000/svg" xmlns:xlink="http://www.w3.org/1999/xlink" x="0px" y="0px"
	 viewBox="0 0 360 360" style="enable-background:new 0 0 360 360;" xml:space="preserve">
<style type="text/css">
	.st0{fill:none;}
	.st1{opacity:0.5;fill:#FFFFFF;}
	.st2{fill:#FFFFFF;}
</style>
<g>
	<path class="st0" d="M110,110c-18.7,18.7-29,43.5-29,70c0,26.4,10.3,51.3,29,70c18.7,18.7,43.5,29,70,29s51.3-10.3,70-29
		c18.7-18.7,29-43.5,29-70c0-26.4-10.3-51.3-29-70c-18.7-18.7-43.5-29-70-29v0C153.6,81,128.7,91.3,110,110z"/>
	<path class="st1" d="M180,8.5L180,8.5V81c26.4,0,51.3,10.3,70,29c18.7,18.7,29,43.5,29,70c0,26.4-10.3,51.3-29,70
		c-18.7,18.7-43.5,29-70,29v72.6c94.7,0,171.5-76.8,171.5-171.5S274.7,8.5,180,8.5z"/>
	<path class="st2" d="M110,250c-18.7-18.7-29-43.5-29-70c0-26.4,10.3-51.3,29-70c18.7-18.7,43.5-29,70-29v0V8.5
		C85.3,8.5,8.5,85.3,8.5,180S85.3,351.5,180,351.5V279C153.6,279,128.7,268.7,110,250z"/>
</g>
</svg>
