<?xml version="1.0" encoding="utf-8"?>
<!-- Generator: Adobe Illustrator 22.1.0, SVG Export Plug-In . SVG Version: 6.00 Build 0)  -->
<svg version="1.1" id="Layer_1" xmlns="http://www.w3.org/2000/svg" xmlns:xlink="http://www.w3.org/1999/xlink" x="0px" y="0px"
	 viewBox="0 0 192.8 210.8" style="enable-background:new 0 0 192.8 210.8;" xml:space="preserve">
<style type="text/css">
	.st0{opacity:0.5;fill:#FFFFFF;}
</style>
<path class="st0" d="M91.3,198.1l-8.6-72c-0.4-3-2.7-5.3-5.7-5.7l-62.8-8.6c-7.6-0.9-7.6-12,0-12.9L77,90.4c3-0.4,5.3-2.7,5.7-5.7
	l8.6-72c0.9-7.6,12-7.6,12.9,0l8.6,72c0.4,3,2.7,5.3,5.7,5.7l60.1,8.6c7.6,0.9,7.6,12,0,12.9l-60.1,8.6c-3,0.4-5.3,2.7-5.7,5.7
	l-8.6,72C103.3,205.7,92.2,205.7,91.3,198.1z"/>
</svg>
